<svg xmlns="http://www.w3.org/2000/svg" viewBox="0 0 1200 900" preserveAspectRatio="xMidYMid slice">
  <defs>
    <linearGradient id="konsulttiPalette" x1="0%" y1="0%" x2="100%" y2="100%">
      <stop offset="0%" stop-color="#21170E" />
      <stop offset="100%" stop-color="#3A2A17" />
    </linearGradient>
    <pattern id="konsulttiDashes" width="120" height="120" patternUnits="userSpaceOnUse">
      <path d="M0 60h120" stroke="#AA8E5A" stroke-opacity="0.12" stroke-width="8" stroke-linecap="round" />
      <path d="M60 0v120" stroke="#AA8E5A" stroke-opacity="0.12" stroke-width="8" stroke-linecap="round" />
    </pattern>
    <filter id="konsulttiShadow" x="-20%" y="-20%" width="140%" height="140%">
      <feDropShadow dx="0" dy="18" stdDeviation="18" flood-color="#000" flood-opacity="0.42" />
    </filter>
  </defs>
  <rect width="1200" height="900" fill="url(#konsulttiPalette)" />
  <rect width="1200" height="900" fill="url(#konsulttiDashes)" />
  <g transform="translate(600 450)">
    <circle r="220" fill="#25190F" stroke="#F4E7D1" stroke-width="8" filter="url(#konsulttiShadow)" />
    <g fill="none" stroke="#F4E7D1" stroke-linecap="round" stroke-linejoin="round">
      <path d="M-126 -40h252c32 0 58 24 58 54s-26 54-58 54h-40l24 72-104-72h-132c-32 0-58-24-58-54s26-54 58-54z" stroke-width="14" />
      <path d="M-84 -20h168" stroke-width="12" opacity="0.7" />
      <path d="M-60 16h120" stroke-width="12" opacity="0.55" />
      <path d="M-38 52h76" stroke-width="12" opacity="0.4" />
    </g>
    <g>
      <path d="M48 -124a86 86 0 0 1 86 86 86 86 0 0 1-86 86 86 86 0 0 1-38-9l-52 32 18-68a86 86 0 0 1 72-141z" fill="#E3C58A" opacity="0.92" />
      <path d="M14 -32l34 34 74-74" fill="none" stroke="#25190F" stroke-width="16" stroke-linecap="round" stroke-linejoin="round" />
    </g>
    <g stroke="#E3C58A" stroke-width="12" stroke-linecap="round" stroke-linejoin="round" opacity="0.55">
      <path d="M-200 -176h400" />
      <path d="M-200 176h400" />
      <path d="M-200 -176l200 112 200-112" />
    </g>
  </g>
</svg>
