<svg xmlns="http://www.w3.org/2000/svg" viewBox="0 0 1200 900" preserveAspectRatio="xMidYMid slice" role="img" aria-label="Tyylitelty konsultointia symboloiva tausta">
  <defs>
    <linearGradient id="konsulttiBase" x1="0%" y1="0%" x2="100%" y2="100%">
      <stop offset="0%" stop-color="#22170F" />
      <stop offset="100%" stop-color="#332619" />
    </linearGradient>
    <radialGradient id="konsulttiGlow" cx="50%" cy="40%" r="60%">
      <stop offset="0%" stop-color="#F6E7C6" stop-opacity="0.2" />
      <stop offset="100%" stop-color="#E3C27A" stop-opacity="0" />
    </radialGradient>
  </defs>
  <rect width="1200" height="900" fill="url(#konsulttiBase)" />
  <rect width="1200" height="900" fill="url(#konsulttiGlow)" />
  <g fill="none" stroke-linecap="round" stroke-linejoin="round">
    <path d="M240 520c0-140 110-250 240-250h240c130 0 240 110 240 250" stroke="#F6E3BB" stroke-width="10" opacity="0.7" />
    <path d="M360 560c0-90 70-160 160-160h160c90 0 160 70 160 160" stroke="#EBCB83" stroke-width="10" opacity="0.75" />
  </g>
  <g fill="none" stroke="#F5E6C8" stroke-width="12" stroke-linecap="round" stroke-linejoin="round" opacity="0.85">
    <path d="M420 620h360l60 120H360l60-120z" />
    <path d="M420 620v-110c0-44 36-80 80-80h200c44 0 80 36 80 80v110" />
  </g>
  <g fill="none" stroke-linecap="round" stroke-linejoin="round" opacity="0.9">
    <path d="M420 420c0-60 48-108 108-108h144c60 0 108 48 108 108" stroke="#F0D79D" stroke-width="10" />
    <path d="M468 420c0-36 30-66 66-66h132c36 0 66 30 66 66" stroke="#EAC179" stroke-width="8" />
  </g>
  <g fill="none" stroke="#F5E6C8" stroke-width="8" opacity="0.8">
    <path d="M460 460h280" />
    <path d="M460 500h200" />
    <path d="M460 540h140" />
  </g>
  <g fill="#EBCB83" opacity="0.85">
    <circle cx="360" cy="560" r="20" />
    <circle cx="840" cy="560" r="20" />
    <circle cx="600" cy="356" r="18" />
  </g>
</svg>
