<svg xmlns="http://www.w3.org/2000/svg" viewBox="0 0 1200 900" preserveAspectRatio="xMidYMid slice">
  <defs>
    <linearGradient id="rakennePalette" x1="0%" y1="0%" x2="100%" y2="100%">
      <stop offset="0%" stop-color="#1B120A" />
      <stop offset="100%" stop-color="#362512" />
    </linearGradient>
    <pattern id="rakenneStruts" width="80" height="80" patternUnits="userSpaceOnUse">
      <path d="M0 80L80 0M-20 40L40-20M40 100l60-60" fill="none" stroke="#9C814F" stroke-opacity="0.1" stroke-width="6" />
    </pattern>
    <filter id="rakenneShadow" x="-20%" y="-20%" width="140%" height="140%">
      <feDropShadow dx="0" dy="20" stdDeviation="20" flood-color="#000" flood-opacity="0.45" />
    </filter>
  </defs>
  <rect width="1200" height="900" fill="url(#rakennePalette)" />
  <rect width="1200" height="900" fill="url(#rakenneStruts)" />
  <g transform="translate(600 450)">
    <circle r="220" fill="#24170C" stroke="#F2E2C4" stroke-width="8" filter="url(#rakenneShadow)" />
    <g fill="none" stroke="#F2E2C4" stroke-linecap="round" stroke-linejoin="round">
      <path d="M-138 94h276" stroke-width="18" />
      <path d="M-138 -128h276" stroke-width="18" />
      <path d="M-110 -110V76" stroke-width="12" opacity="0.75" />
      <path d="M110 -110V76" stroke-width="12" opacity="0.75" />
      <path d="M-56 -110v186" stroke-width="12" opacity="0.55" />
      <path d="M56 -110v186" stroke-width="12" opacity="0.55" />
    </g>
    <g fill="#E3C58A">
      <path d="M-110 -128h220l-32-72h-156l-32 72z" opacity="0.9" />
      <rect x="-88" y="-38" width="176" height="76" rx="16" />
      <path d="M-110 94h220l36 86h-292l36-86z" opacity="0.9" />
    </g>
    <g stroke="#E3C58A" stroke-width="12" stroke-linecap="round" opacity="0.65">
      <path d="M-180 -198h360" />
      <path d="M-180 160h360" />
      <path d="M-180 -198l180 118 180-118" />
    </g>
  </g>
</svg>
