<svg xmlns="http://www.w3.org/2000/svg" viewBox="0 0 1200 900" preserveAspectRatio="xMidYMid slice" role="img" aria-label="Tyylitelty rakennuttamisen hallintaa kuvaava tausta">
  <defs>
    <linearGradient id="rakennuttajaBase" x1="0%" y1="0%" x2="100%" y2="100%">
      <stop offset="0%" stop-color="#20160F" />
      <stop offset="100%" stop-color="#322518" />
    </linearGradient>
    <linearGradient id="timelineGlow" x1="0%" y1="0%" x2="100%" y2="0%">
      <stop offset="0%" stop-color="#E8C47A" stop-opacity="0.2" />
      <stop offset="50%" stop-color="#F6E7C6" stop-opacity="0.35" />
      <stop offset="100%" stop-color="#E8C47A" stop-opacity="0.2" />
    </linearGradient>
  </defs>
  <rect width="1200" height="900" fill="url(#rakennuttajaBase)" />
  <g stroke="#CFA554" stroke-opacity="0.18" stroke-width="2">
    <path d="M0 240h1200M0 460h1200M0 680h1200" />
    <path d="M200 0v900M460 0v900M720 0v900M980 0v900" />
  </g>
  <g fill="none" stroke-linecap="round" stroke-linejoin="round" opacity="0.85">
    <path d="M200 620h800" stroke="url(#timelineGlow)" stroke-width="26" />
    <path d="M260 500l120-160 140 200 140-200 120 160 120-120 100 140" stroke="#F4E6C5" stroke-width="12" />
    <path d="M260 720h180l60-120 120 200 120-200 80 120h140" stroke="#EBCB83" stroke-width="10" />
  </g>
  <g fill="#F5E6C8" opacity="0.9" stroke="#3E2F20" stroke-width="3">
    <circle cx="260" cy="620" r="22" />
    <circle cx="460" cy="620" r="22" />
    <circle cx="640" cy="620" r="22" />
    <circle cx="820" cy="620" r="22" />
    <circle cx="1000" cy="620" r="22" />
  </g>
  <g fill="none" stroke="#F0D79D" stroke-width="8" stroke-linecap="round" stroke-linejoin="round" opacity="0.85">
    <rect x="280" y="280" width="160" height="120" rx="18" />
    <rect x="520" y="320" width="180" height="120" rx="18" />
    <path d="M560 350h60" />
    <path d="M560 390h100" />
    <rect x="800" y="280" width="160" height="140" rx="22" />
    <path d="M820 320h120" />
    <path d="M820 360h80" />
  </g>
</svg>
