<svg xmlns="http://www.w3.org/2000/svg" viewBox="0 0 1200 900" preserveAspectRatio="xMidYMid slice">
  <defs>
    <linearGradient id="rakennuttajaPalette" x1="0%" y1="0%" x2="100%" y2="100%">
      <stop offset="0%" stop-color="#22170D" />
      <stop offset="100%" stop-color="#3C2B17" />
    </linearGradient>
    <pattern id="rakennuttajaPattern" width="100" height="100" patternUnits="userSpaceOnUse">
      <path d="M0 0h100v100H0z" fill="none" />
      <path d="M0 50h100" stroke="#A68855" stroke-opacity="0.1" stroke-width="10" stroke-linecap="round" />
      <path d="M50 0v100" stroke="#A68855" stroke-opacity="0.1" stroke-width="10" stroke-linecap="round" />
      <circle cx="50" cy="50" r="8" fill="#A68855" opacity="0.18" />
    </pattern>
    <filter id="rakennuttajaShadow" x="-20%" y="-20%" width="140%" height="140%">
      <feDropShadow dx="0" dy="18" stdDeviation="18" flood-color="#000" flood-opacity="0.42" />
    </filter>
  </defs>
  <rect width="1200" height="900" fill="url(#rakennuttajaPalette)" />
  <rect width="1200" height="900" fill="url(#rakennuttajaPattern)" />
  <g transform="translate(600 450)">
    <circle r="220" fill="#261A10" stroke="#F4E7D1" stroke-width="8" filter="url(#rakennuttajaShadow)" />
    <g>
      <path d="M0 -156a110 110 0 0 1 110 110v18h-220v-18A110 110 0 0 1 0 -156z" fill="#E3C58A" />
      <path d="M-98 -28h196v126c0 56-44 102-98 102s-98-46-98-102V-28z" fill="#F4E7D1" />
      <path d="M-74 -24h148v80c0 40-33 72-74 72s-74-32-74-72v-80z" fill="#261A10" />
      <path d="M0 -156c-40 0-86 22-110 48l24 40h172l24-40c-24-26-70-48-110-48z" fill="#261A10" opacity="0.8" />
      <path d="M-48 -24v-22c0-26 22-48 48-48s48 22 48 48v22" fill="none" stroke="#261A10" stroke-width="12" stroke-linecap="round" />
      <path d="M-48 60h96" stroke="#F4E7D1" stroke-width="18" stroke-linecap="round" opacity="0.8" />
      <path d="M-26 108h52" stroke="#F4E7D1" stroke-width="14" stroke-linecap="round" opacity="0.65" />
    </g>
    <g stroke="#E3C58A" stroke-width="12" stroke-linecap="round" stroke-linejoin="round" opacity="0.58">
      <path d="M-200 -176h400" />
      <path d="M-200 176h400" />
      <path d="M-200 -176l200 112 200-112" />
      <path d="M-132 208h264l-24 80h-216l-24-80z" />
    </g>
  </g>
</svg>
