<svg xmlns="http://www.w3.org/2000/svg" viewBox="0 0 1200 900" preserveAspectRatio="xMidYMid slice" role="img" aria-label="Tyylitelty rakenneratkaisuja kuvaava tausta">
  <defs>
    <linearGradient id="rakenneBase" x1="0%" y1="0%" x2="100%" y2="100%">
      <stop offset="0%" stop-color="#1E140C" />
      <stop offset="100%" stop-color="#2D2115" />
    </linearGradient>
    <linearGradient id="beamHighlight" x1="0%" y1="0%" x2="100%" y2="0%">
      <stop offset="0%" stop-color="#E8C47A" stop-opacity="0.4" />
      <stop offset="100%" stop-color="#F6E3BB" stop-opacity="0.85" />
    </linearGradient>
  </defs>
  <rect width="1200" height="900" fill="url(#rakenneBase)" />
  <g stroke="#CFA554" stroke-opacity="0.2" stroke-width="2">
    <path d="M0 160l1200 160M0 360l1200 160M0 560l1200 160" />
    <path d="M160 0l160 900M440 0l160 900M720 0l160 900M1000 0l160 900" />
  </g>
  <g fill="none" stroke-linecap="round" stroke-linejoin="round">
    <path d="M160 620h880l60-120H100l60 120z" stroke="#F4E6C5" stroke-width="14" opacity="0.75" />
    <path d="M240 500l120-220 160 320 160-320 120 220" stroke="#F0D79D" stroke-width="12" opacity="0.85" />
    <path d="M160 620l120-120 160 120 160-120 160 120 120-120 100 120" stroke="#EAC179" stroke-width="10" opacity="0.8" />
  </g>
  <g fill="url(#beamHighlight)" fill-opacity="0.85" stroke="#3E2F20" stroke-width="3" opacity="0.75">
    <rect x="220" y="260" width="160" height="36" rx="12" />
    <rect x="510" y="260" width="180" height="36" rx="12" />
    <rect x="820" y="260" width="160" height="36" rx="12" />
  </g>
</svg>
