<svg xmlns="http://www.w3.org/2000/svg" viewBox="0 0 800 900" fill="none">
  <!-- Sun with Face -->
  <g>
    <!-- Sun rays -->
    <path d="M400 50 L400 150" stroke="#C9972E" stroke-width="15" stroke-linecap="round"/>
    <path d="M529.3 79.3 L481.1 127.5" stroke="#C9972E" stroke-width="15" stroke-linecap="round"/>
    <path d="M600 150 L527.5 200" stroke="#C9972E" stroke-width="15" stroke-linecap="round"/>
    <path d="M650 250 L550 250" stroke="#C9972E" stroke-width="15" stroke-linecap="round"/>
    <path d="M629.3 370.7 L581.1 322.5" stroke="#C9972E" stroke-width="15" stroke-linecap="round"/>
    <path d="M270.7 79.3 L318.9 127.5" stroke="#C9972E" stroke-width="15" stroke-linecap="round"/>
    <path d="M200 150 L272.5 200" stroke="#C9972E" stroke-width="15" stroke-linecap="round"/>
    <path d="M150 250 L250 250" stroke="#C9972E" stroke-width="15" stroke-linecap="round"/>
    <path d="M170.7 370.7 L218.9 322.5" stroke="#C9972E" stroke-width="15" stroke-linecap="round"/>
    <path d="M600 350 L527.5 300" stroke="#C9972E" stroke-width="15" stroke-linecap="round"/>
    <path d="M200 350 L272.5 300" stroke="#C9972E" stroke-width="15" stroke-linecap="round"/>

    <!-- Sun circle -->
    <circle cx="400" cy="250" r="120" fill="none" stroke="#C9972E" stroke-width="12"/>

    <!-- Face features -->
    <!-- Left eye -->
    <path d="M 350 230 Q 360 220 370 230" stroke="#C9972E" stroke-width="8" fill="none" stroke-linecap="round"/>
    <circle cx="360" cy="235" r="8" fill="#C9972E"/>

    <!-- Right eye -->
    <path d="M 430 230 Q 440 220 450 230" stroke="#C9972E" stroke-width="8" fill="none" stroke-linecap="round"/>
    <circle cx="440" cy="235" r="8" fill="#C9972E"/>

    <!-- Nose -->
    <path d="M 400 250 L 400 270 L 390 275" stroke="#C9972E" stroke-width="8" fill="none" stroke-linecap="round" stroke-linejoin="round"/>

    <!-- Smile -->
    <path d="M 360 280 Q 400 300 440 280" stroke="#C9972E" stroke-width="8" fill="none" stroke-linecap="round"/>
  </g>

  <!-- Building -->
  <g>
    <!-- Main building structure -->
    <rect x="250" y="500" width="300" height="300" fill="none" stroke="#C9972E" stroke-width="12"/>

    <!-- Roof triangle -->
    <path d="M 240 500 L 400 420 L 560 500 Z" fill="none" stroke="#C9972E" stroke-width="12" stroke-linejoin="round"/>

    <!-- Circle decoration on roof -->
    <circle cx="400" cy="460" r="15" fill="none" stroke="#C9972E" stroke-width="8"/>

    <!-- Side wings -->
    <rect x="180" y="600" width="70" height="200" fill="none" stroke="#C9972E" stroke-width="12"/>
    <rect x="550" y="600" width="70" height="200" fill="none" stroke="#C9972E" stroke-width="12"/>

    <!-- Windows on main building -->
    <rect x="290" y="540" width="40" height="50" fill="none" stroke="#C9972E" stroke-width="8"/>
    <rect x="380" y="540" width="40" height="50" fill="none" stroke="#C9972E" stroke-width="8"/>
    <rect x="470" y="540" width="40" height="50" fill="none" stroke="#C9972E" stroke-width="8"/>

    <rect x="290" y="620" width="40" height="50" fill="none" stroke="#C9972E" stroke-width="8"/>
    <rect x="380" y="620" width="40" height="50" fill="none" stroke="#C9972E" stroke-width="8"/>
    <rect x="470" y="620" width="40" height="50" fill="none" stroke="#C9972E" stroke-width="8"/>

    <!-- Door -->
    <rect x="360" y="720" width="80" height="80" fill="none" stroke="#C9972E" stroke-width="10"/>

    <!-- Windows on side wings -->
    <rect x="195" y="640" width="40" height="50" fill="none" stroke="#C9972E" stroke-width="8"/>
    <rect x="195" y="720" width="40" height="50" fill="none" stroke="#C9972E" stroke-width="8"/>

    <rect x="565" y="640" width="40" height="50" fill="none" stroke="#C9972E" stroke-width="8"/>
    <rect x="565" y="720" width="40" height="50" fill="none" stroke="#C9972E" stroke-width="8"/>

    <!-- Base line -->
    <line x1="150" y1="800" x2="650" y2="800" stroke="#C9972E" stroke-width="12" stroke-linecap="round"/>
  </g>
</svg>
