<svg width="160" height="160" viewBox="0 0 160 160" fill="none" xmlns="http://www.w3.org/2000/svg">
  <path d="M32 86L60 58C66.6274 51.3726 77.3726 51.3726 84 58L106 80C112.627 86.6274 112.627 97.3726 106 104L94 116C87.3726 122.627 76.6274 122.627 70 116L32 78" stroke="#C9972E" stroke-width="6" stroke-linecap="round" stroke-linejoin="round" />
  <path d="M128 74L102 100" stroke="#C9972E" stroke-width="6" stroke-linecap="round" stroke-linejoin="round" />
  <path d="M110 46L136 72C142.627 78.6274 142.627 89.3726 136 96L112 120C105.373 126.627 94.6274 126.627 88 120L70 102" stroke="#C9972E" stroke-width="6" stroke-linecap="round" stroke-linejoin="round" />
  <path d="M52 106L66 120" stroke="#C9972E" stroke-width="6" stroke-linecap="round" stroke-linejoin="round" />
  <path d="M64 94L78 108" stroke="#C9972E" stroke-width="6" stroke-linecap="round" stroke-linejoin="round" />
</svg>
