<svg xmlns="http://www.w3.org/2000/svg" viewBox="0 0 256 256">
  <g fill="none" stroke="#C9972E" stroke-width="8" stroke-linecap="round" stroke-linejoin="round">
    <path d="M72 80 L96 108 L114 66 L128 114 L142 66 L160 108 L184 80 V120 H72 Z"/>
    <circle cx="128" cy="140" r="56"/>
    <path d="M128 52 V20"/>
    <path d="M102 66 L90 34"/>
    <path d="M76 94 L44 80"/>
    <path d="M60 140 H28"/>
    <path d="M76 186 L44 200"/>
    <path d="M102 214 L90 246"/>
    <path d="M154 66 L166 34"/>
    <path d="M180 94 L212 80"/>
    <path d="M196 140 H228"/>
    <path d="M180 186 L212 200"/>
    <path d="M154 214 L166 246"/>
    <path d="M112 136 Q118 128 128 128 Q138 128 144 136"/>
    <path d="M110 150 Q116 154 122 150"/>
    <path d="M134 150 Q140 154 146 150"/>
    <path d="M116 168 Q128 176 140 168"/>
    <rect x="76" y="192" width="104" height="56" rx="8"/>
    <path d="M128 192 V248"/>
    <rect x="92" y="206" width="24" height="24" rx="2"/>
    <rect x="140" y="206" width="24" height="24" rx="2"/>
    <rect x="118" y="214" width="20" height="34" rx="2"/>
  </g>
</svg>
