<svg
  xmlns="http://www.w3.org/2000/svg"
  viewBox="0 0 180 220"
  role="img"
  aria-labelledby="aurinkokuningas-logo-title"
>
  <title id="aurinkokuningas-logo-title">Aurinkokuningas Oy logo</title>
  <g fill="none" stroke="#B58A2C" stroke-width="5" stroke-linecap="round" stroke-linejoin="round">
    <!-- Crown -->
    <path d="M45 50L60 12l18 28 12-30 12 30 18-28 15 38"/>
    <path d="M90 48V28"/>
    <!-- Face -->
    <circle cx="90" cy="100" r="40"/>
    <path d="M90 140v24"/>
    <path d="M52 100H30"/>
    <path d="M128 100h22"/>
    <path d="M66 70L48 52"/>
    <path d="M114 70l18-18"/>
    <path d="M66 130l-18 18"/>
    <path d="M114 130l18 18"/>
    <path d="M90 86q-4 6-12 8"/>
    <path d="M90 86q4 6 12 8"/>
    <path d="M78 102q5-8 10 0"/>
    <path d="M96 102q5-8 10 0"/>
    <path d="M84 116q6 6 12 0"/>
    <path d="M90 110v8"/>
    <!-- Building -->
    <path d="M34 166l56-30 56 30"/>
    <path d="M28 166h124v48H28z"/>
    <path d="M28 190h124"/>
    <rect x="46" y="178" width="22" height="32" rx="2"/>
    <rect x="124" y="178" width="22" height="32" rx="2"/>
    <path d="M94 188v42"/>
    <path d="M90 206h8"/>
    <rect x="80" y="188" width="28" height="42" rx="2"/>
    <path d="M72 176h12"/>
    <path d="M96 176h12"/>
    <path d="M72 188h12"/>
    <path d="M108 188h12"/>
  </g>
  <g fill="#B58A2C">
    <circle cx="57" cy="198" r="4"/>
    <circle cx="136" cy="198" r="4"/>
    <circle cx="98" cy="206" r="4"/>
  </g>
</svg>
